<!-- icon666.com - MILLIONS vector ICONS FREE --><svg viewBox="0 0 64 64" xmlns="http://www.w3.org/2000/svg"><g id="Layer_44" data-name="Layer 44"><path d="m32 62a30 30 0 1 1 30-30 30 30 0 0 1 -30 30zm0-56a26 26 0 1 0 26 26 26 26 0 0 0 -26-26z" fill="#000000" style="fill: rgb(255, 255, 255);"></path><path d="m38.84 51.68a2 2 0 0 1 -1.41-.59l-17.68-17.68a2 2 0 0 1 0-2.83l17.67-17.67a2 2 0 0 1 2.83 2.83l-16.25 16.26 16.25 16.26a2 2 0 0 1 -1.41 3.41z" fill="#000000" style="fill: rgb(255, 255, 255);"></path></g></svg>